<svg xmlns="http://www.w3.org/2000/svg"  viewBox="0 0 48 48" width="480px" height="480px" baseProfile="basic"><path fill="#16b7b8" d="M44.17,20.509c-0.929-1.047-1.859-2.093-2.788-3.14c-1.417-1.596-2.706-3.127-4.565-4.176	l-0.434,9.628l5.44,2.886c0.582-1.256,1.833-3.544,2.415-4.8c0.027-0.059,0.055-0.121,0.05-0.186	C44.283,20.64,44.225,20.571,44.17,20.509z"/><path fill="#71c598" d="M21.886,2.996c-0.275-0.198-0.575-0.405-0.914-0.401c-0.299,0.003-0.568,0.172-0.823,0.33	c-4.44,2.75-9.819,3.79-14.348,6.392c-0.591,3.658-1.24,7.353-1.298,11.058c-0.022,1.38,0.031,2.759,0.034,4.138	c0.008,3.927-0.387,7.854-1.176,11.701c0.994,0.434,1.785,1.216,2.593,1.938c3.296,2.943,7.26,5.134,11.506,6.358	c0.614-0.91,2.119-2.401,2.974-3.09L28.25,7.595C26.129,6.062,24.008,4.529,21.886,2.996z"/><path fill="#febf10" d="M40.737,20.822c-1.183,0.439-2.056,0.764-3.238,1.203l-21.27,15.003	c-0.334,0.883-0.332,1.023-0.537,1.944c-0.061,0.277-0.115,0.576,0.001,0.835c0.161,0.359,0.583,0.509,0.963,0.611	c1.327,0.358,2.686,0.595,3.999,1.001c1.812,0.561,3.518,1.438,5.347,1.939c1.805,0.494,3.704,0.614,5.48,1.208	c0.269,0.09,0.542,0.192,0.826,0.191c0.218,0,0.431-0.062,0.641-0.123c4.005-1.181,7.91-2.699,11.66-4.534	C43.496,33.64,42.205,27.211,40.737,20.822z"/><path fill="#010101" d="M45.091,39.967c-1.115-6.46-2.405-12.889-3.871-19.278c-0.057-0.247-0.369-0.441-0.615-0.349	c-1.079,0.401-2.159,0.802-3.238,1.203c-0.598,0.222-0.339,1.189,0.266,0.964c0.914-0.34,1.828-0.679,2.742-1.019	c1.384,6.074,2.61,12.183,3.677,18.321c-1.883,0.907-3.797,1.745-5.75,2.49c-0.994,0.379-1.995,0.737-3.004,1.073	c-0.523,0.174-1.048,0.343-1.575,0.506c-0.52,0.161-1.154,0.46-1.699,0.335c-1.015-0.232-1.99-0.562-3.021-0.75	c-1.072-0.195-2.149-0.37-3.194-0.682c-2.004-0.599-3.872-1.565-5.9-2.094c-1.082-0.282-2.224-0.436-3.282-0.799	c-0.714-0.245-0.425-0.927-0.294-1.501c0.096-0.42,0.231-0.823,0.381-1.227c0.225-0.604-0.741-0.865-0.964-0.266	c-0.291,0.783-0.65,1.764-0.616,2.606c0.042,1.02,1.002,1.304,1.836,1.514c1.147,0.289,2.312,0.51,3.446,0.853	c1.128,0.341,2.21,0.807,3.306,1.235c1.112,0.434,2.233,0.793,3.404,1.028c1.185,0.238,2.387,0.398,3.555,0.715	c0.5,0.135,1.003,0.376,1.525,0.403c0.568,0.029,1.137-0.207,1.671-0.371c1.167-0.358,2.326-0.745,3.474-1.161	c2.56-0.925,5.067-1.993,7.514-3.185C45.073,40.429,45.127,40.175,45.091,39.967z"/><path fill="#010101" d="M28.503,7.163c-1.525-1.102-3.049-2.204-4.574-3.305c-0.694-0.502-1.382-1.106-2.133-1.522	c-0.687-0.38-1.263-0.221-1.899,0.157c-2.856,1.697-5.961,2.775-9.046,3.969c-1.479,0.572-2.951,1.179-4.36,1.91	C6.179,8.534,5.686,8.7,5.448,8.964C5.232,9.203,5.253,9.601,5.204,9.901c-0.156,0.957-0.312,1.914-0.458,2.873	c-0.274,1.802-0.515,3.61-0.645,5.429c-0.13,1.82-0.094,3.637-0.071,5.46c0.054,4.173-0.321,8.329-1.151,12.42	c-0.041,0.201,0.023,0.469,0.23,0.565c1.279,0.593,2.232,1.67,3.303,2.557c1.048,0.869,2.152,1.67,3.306,2.392	c2.365,1.478,4.935,2.616,7.611,3.398c0.226,0.066,0.438-0.048,0.565-0.23c0.78-1.123,1.841-2.126,2.896-2.989	c0.498-0.408-0.213-1.112-0.707-0.707c-1.019,0.833-2.002,1.797-2.798,2.859c-2.552-0.776-4.989-1.878-7.242-3.309	c-1.168-0.742-2.282-1.564-3.331-2.466c-0.901-0.775-1.749-1.63-2.799-2.198c0.833-4.257,1.179-8.562,1.11-12.9	c-0.036-2.271,0.008-4.52,0.257-6.78c0.245-2.221,0.618-4.425,0.975-6.63c3.432-1.91,7.238-2.975,10.818-4.559	c0.883-0.391,1.752-0.815,2.593-1.291c0.339-0.192,0.896-0.689,1.308-0.699c0.445-0.011,1.122,0.666,1.457,0.908	c1.856,1.341,3.712,2.683,5.568,4.024C28.52,8.404,29.02,7.537,28.503,7.163z"/><path fill="#cbdb2d" d="M33.98,3.383c-3.018,2.31-5.653,4.552-8.387,7.193l10.15,0.586	C34.936,8.803,34.271,5.859,33.98,3.383z"/><path fill="#010101" d="M36.226,11.029c-0.839-2.473-1.434-5.053-1.746-7.646c-0.039-0.324-0.414-0.691-0.752-0.432	c-2.961,2.27-5.802,4.681-8.488,7.271c-0.464,0.448,0.244,1.154,0.707,0.707c2.435-2.348,4.999-4.55,7.667-6.627	c0.34,2.373,0.878,4.724,1.648,6.993C35.468,11.901,36.434,11.641,36.226,11.029z"/><path fill="#010101" d="M43.868,19.417c-2.073-2.335-4.053-5.066-6.798-6.655c-0.558-0.323-1.062,0.541-0.505,0.863	c2.463,1.426,4.242,3.848,6.104,5.945c0.246,0.277,0.492,0.554,0.738,0.831c0.061,0.069,0.299,0.265,0.376,0.395	c-0.04,0.013-0.103,0.141-0.124,0.173c-0.284,0.435-0.48,0.964-0.718,1.427c-0.523,1.016-1.064,2.025-1.549,3.061	c-0.271,0.579,0.591,1.088,0.863,0.505c0.536-1.145,1.139-2.258,1.714-3.383c0.254-0.496,0.573-1.007,0.751-1.536	C44.95,20.361,44.273,19.873,43.868,19.417z"/><path fill="#373837" d="M10.75,11.049c4.513-0.595,9.058-0.636,13.608-0.511c0.825,0.023,1.65,0.045,2.473,0.107	c3.128,0.235,6.785,1.106,9.858,0.474c0.148,2.781,0.415,5.655,0.564,8.436c0.311,5.822,0.596,11.845-0.122,17.631	c-8.364-0.305-17.983-0.287-26.352-0.163c0.061-1.205,0.138-2.624,0.199-3.829c0.075-1.475,0.15-2.95,0.167-4.426	c0.015-1.301-0.016-2.602-0.046-3.903C10.993,20.314,10.856,15.599,10.75,11.049z"/><path fill="#010101" d="M37.19,11.118c-0.019-0.342-0.303-0.546-0.633-0.482c-2.009,0.391-4.083,0.168-6.096-0.078	c-2.078-0.254-4.129-0.468-6.224-0.523c-4.502-0.12-9.015-0.065-13.486,0.515c-0.034,0.004-0.059,0.021-0.089,0.03	c-0.22,0.03-0.418,0.182-0.411,0.47c0.104,4.405,0.23,8.81,0.335,13.216c0.102,4.268-0.088,8.497-0.306,12.758	c-0.014,0.267,0.24,0.504,0.5,0.5c8.782-0.129,17.573-0.154,26.352,0.163c0.294,0.011,0.468-0.24,0.5-0.5	C38.686,28.516,37.662,19.787,37.19,11.118z M11.304,36.516c0.206-4.09,0.379-8.153,0.281-12.252	c-0.102-4.256-0.222-8.511-0.324-12.767c4.386-0.529,8.808-0.578,13.221-0.456c2.124,0.059,4.201,0.307,6.308,0.557	c1.807,0.214,3.63,0.338,5.434,0.081c0.475,8.315,1.389,16.681,0.455,24.994C28.225,36.379,19.761,36.396,11.304,36.516z"/><path fill="#d6e5e5" d="M31.258,18.161c-1.338-1.385-3.632-1.628-4.578-0.517c-0.374,0.439-0.659,1.228-0.83,1.779	c-0.127,0.409-0.232,0.838-0.171,1.262c0.101,0.7,0.644,1.268,1.263,1.61c1.436,0.794,3.387,0.502,4.529-0.676	c0.555,0.389,1.094,0.8,1.614,1.234c0.116,0.096,0.239,0.21,0.249,0.36c0.008,0.125-0.066,0.239-0.14,0.34	c-0.896,1.209-2.343,1.962-3.84,2.121c-1.496,0.159-3.027-0.25-4.313-1.033c-0.483-0.294-0.94-0.644-1.297-1.083	c-0.592-0.727-0.881-1.656-1.026-2.582c-0.197-1.259-0.144-2.577,0.312-3.768c0.455-1.191,1.339-2.243,2.506-2.757	c1.147-0.505,2.475-0.463,3.684-0.132c1.209,0.331,2.323,0.931,3.426,1.526c0.107,0.058,0.225,0.131,0.246,0.25	c0.018,0.107-0.049,0.207-0.114,0.294C32.311,17.012,31.803,17.604,31.258,18.161z"/><path fill="#d6e5e5" d="M16.686,13.89c0.73,0.099,1.46,0.198,2.19,0.297c0.443,0.06,0.894,0.122,1.299,0.31	c0.648,0.3,1.114,0.888,1.501,1.489c0.242,0.376,0.465,0.768,0.6,1.194c0.435,1.375-0.155,2.952-1.257,3.883	c-1.101,0.931-2.624,1.265-4.059,1.121c-0.205-0.021-0.438-0.042-0.59,0.097c-0.116,0.106-0.147,0.273-0.169,0.427	c-0.142,0.979-0.195,1.97-0.159,2.959c-0.861-0.015-1.722-0.031-2.583-0.046c-0.11-0.002-0.233-0.01-0.306-0.092	c-0.062-0.07-0.068-0.171-0.07-0.264c-0.093-3.652-0.215-7.395-0.308-11.046C13.977,13.636,15.363,13.711,16.686,13.89z M16.373,17.113c0.046,0.733,0.091,1.466,0.137,2.2c0.363-0.021,0.725-0.041,1.088-0.062c0.488-0.028,1.071-0.117,1.273-0.563	c0.194-0.429-0.11-0.933-0.498-1.199C17.889,17.156,16.94,16.963,16.373,17.113z"/><path fill="#d6e5e5" d="M12.868,31.818c-0.017,0.873,0.133,1.749,0.44,2.565c3.374,0.039,6.751-0.158,10.098-0.588	c0.102-0.758,0.131-1.526,0.088-2.289c-0.706,0.138-1.429,0.163-2.149,0.188c-1.564,0.054-3.129,0.108-4.693,0.162	C15.523,31.896,13.996,31.9,12.868,31.818z"/><path fill="#010101" d="M33.553,22.602c-0.514-0.542-1.223-0.986-1.83-1.415c-0.18-0.127-0.458-0.068-0.606,0.078	c-0.784,0.772-1.919,1.125-3.006,0.921c-0.544-0.102-1.079-0.342-1.475-0.735c-0.553-0.549-0.52-1.192-0.304-1.896	c0.286-0.935,0.646-1.924,1.726-2.085c1.045-0.156,2.115,0.318,2.847,1.044c0.087,0.086,0.183,0.12,0.278,0.132	c0.142,0.032,0.296,0.006,0.429-0.132c0.493-0.51,0.957-1.042,1.392-1.603c0.329-0.424,0.593-0.933,0.104-1.357	c-0.461-0.399-1.146-0.651-1.693-0.914c-0.663-0.32-1.349-0.61-2.061-0.804c-2.496-0.679-5.073,0.046-6.398,2.365	c-1.187,2.079-1.204,5.281,0.137,7.307c1.402,2.117,4.502,3.051,6.911,2.568c1.264-0.254,2.484-0.919,3.329-1.901	C33.739,23.704,34.059,23.135,33.553,22.602z M32.391,23.724c-0.613,0.619-1.393,1.055-2.23,1.288	c-1.812,0.504-3.847-0.001-5.337-1.116c-1.532-1.147-1.88-3.332-1.665-5.13c0.207-1.727,1.235-3.468,2.973-4.003	c1.067-0.329,2.206-0.201,3.256,0.128c0.557,0.174,1.092,0.404,1.616,0.66c0.251,0.122,0.499,0.25,0.745,0.381	c0.133,0.07,0.395,0.157,0.566,0.271c-0.154,0.272-0.45,0.543-0.622,0.744c-0.152,0.177-0.313,0.345-0.472,0.515	c-0.973-0.776-2.258-1.192-3.495-0.944c-1.51,0.302-2.172,1.815-2.473,3.188c-0.371,1.697,0.833,3.03,2.438,3.412	c1.333,0.318,2.746-0.01,3.803-0.86c0.311,0.225,0.623,0.45,0.923,0.691c0.118,0.095,0.398,0.302,0.387,0.356	C32.793,23.361,32.467,23.646,32.391,23.724z"/><path fill="#010101" d="M21.723,15.188c-0.508-0.658-1.137-1.157-1.958-1.355c-0.955-0.231-1.974-0.293-2.947-0.425	c-0.024-0.003-0.044,0.004-0.068,0.004c-0.023-0.006-0.04-0.019-0.065-0.022c-1.426-0.187-2.829-0.209-4.163,0.396	c-0.153,0.069-0.252,0.271-0.248,0.432c0.068,2.649,0.149,5.298,0.224,7.948c0.018,0.652,0.037,1.303,0.054,1.955	c0.013,0.477-0.098,1.169,0.14,1.599c0.25,0.451,0.787,0.401,1.236,0.409c0.705,0.013,1.409,0.025,2.114,0.038	c0.264,0.005,0.508-0.233,0.5-0.5c-0.016-0.533-0.013-1.065,0.019-1.597c0.018-0.307-0.025-1.264,0.242-1.4	c0.106-0.054,0.399,0.034,0.533,0.04c0.252,0.01,0.505,0.007,0.756-0.013c0.42-0.034,0.841-0.099,1.246-0.213	c1.522-0.425,2.797-1.478,3.339-2.982C23.242,17.937,22.698,16.451,21.723,15.188z M21.096,20.282	c-0.525,0.615-1.25,1.022-2.023,1.238c-0.771,0.215-1.485,0.161-2.27,0.151c-0.735-0.01-1.021,0.465-1.115,1.131	c-0.11,0.781-0.144,1.569-0.141,2.357c-0.461-0.008-0.922-0.016-1.383-0.025c-0.157-0.003-0.313-0.006-0.47-0.008	c-0.043-0.011-0.073-0.016-0.104-0.022c-0.004-0.023-0.006-0.039-0.012-0.067c-0.004-0.152-0.008-0.305-0.012-0.457	c-0.03-1.151-0.063-2.301-0.096-3.451c-0.063-2.192-0.128-4.384-0.185-6.576c1.084-0.402,2.272-0.309,3.401-0.161	c0.002,0,0.003-0.001,0.004,0c0.842,0.111,1.692,0.201,2.527,0.351c0.878,0.158,1.437,0.623,1.928,1.348	c0.433,0.638,0.787,1.316,0.773,2.104C21.906,18.953,21.587,19.707,21.096,20.282z"/><path fill="#010101" d="M19.001,17.381c-0.305-0.353-0.754-0.558-1.195-0.68c-0.5-0.139-1.057-0.198-1.565-0.07	c-0.017,0.004-0.031,0.017-0.047,0.024c-0.01,0.004-0.018,0.009-0.027,0.014c-0.046,0.022-0.089,0.046-0.126,0.081	c-0.028,0.024-0.047,0.053-0.069,0.081c-0.012,0.017-0.026,0.031-0.036,0.05c-0.021,0.037-0.033,0.078-0.042,0.121	c-0.007,0.028-0.013,0.055-0.015,0.084c0,0.01-0.005,0.018-0.005,0.027c0.046,0.733,0.091,1.466,0.137,2.2	c0.016,0.258,0.216,0.516,0.5,0.5c0.539-0.031,1.088-0.034,1.622-0.121c0.455-0.074,0.935-0.294,1.156-0.723	C19.569,18.421,19.383,17.825,19.001,17.381z M17.864,18.728c-0.003,0-0.006,0.001-0.009,0.001	C17.885,18.724,17.917,18.722,17.864,18.728z M18.406,18.513c0,0,0.001-0.001,0.001-0.001	C18.406,18.513,18.406,18.514,18.406,18.513z M18.414,18.488c-0.003,0.014-0.005,0.016-0.006,0.02c0,0-0.001,0.001-0.002,0.001	c0.001-0.005,0.002-0.012,0.005-0.022c-0.005,0.009-0.009,0.017-0.01,0.018c-0.008,0.011-0.007,0.01-0.01,0.016	c-0.012,0.011-0.041,0.036-0.062,0.057c-0.016,0.01-0.033,0.021-0.049,0.03c-0.017,0.009-0.034,0.017-0.051,0.026	c0.027-0.023,0.008-0.001-0.02,0.008c-0.016,0.005-0.031,0.011-0.047,0.016c-0.086,0.027-0.173,0.047-0.262,0.062	c-0.014,0.003-0.03,0.005-0.046,0.007c-0.047,0.005-0.094,0.01-0.141,0.014c-0.121,0.01-0.242,0.015-0.363,0.022	c-0.124,0.007-0.249,0.014-0.373,0.021c-0.025-0.407-0.051-0.815-0.076-1.222c0.077,0.002,0.154,0.008,0.231,0.015	c0.004,0,0.003,0,0.006,0c0.015,0.003,0.03,0.004,0.042,0.007c0.049,0.008,0.097,0.017,0.145,0.027	c0.177,0.037,0.348,0.091,0.518,0.153c0.005,0.002,0.002,0,0.005,0.002c0.005,0.003,0.004,0.003,0.015,0.008	c0.034,0.017,0.068,0.033,0.101,0.05c0.036,0.019,0.072,0.04,0.106,0.062c0.012,0.008,0.025,0.016,0.037,0.024	c0.009,0.006,0.007,0.003,0.012,0.007c0.065,0.039,0.125,0.117,0.173,0.17c0.004,0.004,0,0,0.003,0.003	c0.012,0.016,0.024,0.035,0.031,0.045c0.025,0.039,0.047,0.081,0.069,0.121c-0.001-0.005-0.006-0.011-0.004-0.014	c-0.001,0.001,0.003,0.01,0.006,0.017c0.001,0.001,0.001,0.002,0.002,0.004c0.006,0.011,0,0.003,0.002,0.007	c0.004,0.01,0.007,0.021,0.008,0.023c0.01,0.032,0.013,0.078,0.026,0.111c0,0,0,0,0,0c-0.005-0.011-0.004-0.013-0.006-0.021	c-0.001,0.008-0.001,0.031-0.001,0.048c-0.003,0.013-0.007,0.027-0.01,0.04c0.002-0.004,0.004-0.009,0.006-0.008	c0,0-0.005,0.008-0.008,0.015C18.415,18.482,18.415,18.485,18.414,18.488z M18.436,18.408	C18.436,18.408,18.436,18.408,18.436,18.408c0.001,0.001,0.001,0.003,0.001,0.004C18.436,18.41,18.438,18.41,18.436,18.408z"/><path fill="#010101" d="M18.411,18.488c0.002-0.004,0.003-0.005,0.005-0.009c0.001-0.002,0.001-0.005,0.002-0.007	C18.416,18.476,18.414,18.48,18.411,18.488z"/><path fill="#010101" d="M18.401,18.27c-0.002-0.005-0.002-0.006-0.004-0.011c0-0.001-0.001-0.002-0.001-0.003	C18.4,18.277,18.408,18.288,18.401,18.27z"/><path fill="#010101" d="M18.43,18.384c0,0,0-0.001,0-0.001C18.433,18.344,18.422,18.351,18.43,18.384z"/><path fill="#010101" d="M23.995,31.507c-0.016-0.346-0.305-0.542-0.633-0.482c-0.932,0.169-1.888,0.166-2.832,0.199	c-0.918,0.032-1.836,0.063-2.755,0.095c-1.635,0.056-3.273,0.112-4.908,0c-0.234-0.016-0.38,0.108-0.443,0.272	c-0.034,0.065-0.057,0.139-0.057,0.228c-0.006,0.925,0.144,1.828,0.458,2.698c0.076,0.211,0.249,0.365,0.482,0.367	c3.376,0.034,6.749-0.162,10.098-0.588c0.296-0.038,0.463-0.201,0.5-0.5C24.002,33.034,24.031,32.274,23.995,31.507z M17.98,32.311	c1.656-0.057,3.366-0.02,5.018-0.24c0.002,0.426-0.015,0.851-0.054,1.276c-3.07,0.37-6.159,0.549-9.252,0.534	c-0.153-0.503-0.244-1.016-0.28-1.539C14.933,32.414,16.457,32.363,17.98,32.311z"/></svg>