<svg xmlns="http://www.w3.org/2000/svg"  viewBox="0 0 100 100" width="50px" height="50px"><path fill="#f1bc19" d="M77 12A1 1 0 1 0 77 14A1 1 0 1 0 77 12Z"/><path fill="#e6edb7" d="M50 13A37 37 0 1 0 50 87A37 37 0 1 0 50 13Z"/><path fill="#f1bc19" d="M83 11A4 4 0 1 0 83 19A4 4 0 1 0 83 11Z"/><path fill="#88ae45" d="M87 22A2 2 0 1 0 87 26A2 2 0 1 0 87 22Z"/><path fill="#fbcd59" d="M81 74A2 2 0 1 0 81 78 2 2 0 1 0 81 74zM15 59A4 4 0 1 0 15 67 4 4 0 1 0 15 59z"/><path fill="#88ae45" d="M25 85A2 2 0 1 0 25 89A2 2 0 1 0 25 85Z"/><path fill="#fff" d="M18.5 49A2.5 2.5 0 1 0 18.5 54 2.5 2.5 0 1 0 18.5 49zM79.5 32A1.5 1.5 0 1 0 79.5 35 1.5 1.5 0 1 0 79.5 32z"/><g><path fill="#84a7d7" d="M35,72.3c-4.025,0-7.3-3.274-7.3-7.3V35c0-4.025,3.274-7.3,7.3-7.3h30c4.025,0,7.3,3.274,7.3,7.3 v30c0,4.025-3.274,7.3-7.3,7.3H35z"/><path fill="#472b29" d="M65,28.4c3.639,0,6.6,2.961,6.6,6.6v30c0,3.639-2.961,6.6-6.6,6.6H35c-3.639,0-6.6-2.961-6.6-6.6 V35c0-3.639,2.961-6.6,6.6-6.6H65 M65,27H35c-4.4,0-8,3.6-8,8v30c0,4.4,3.6,8,8,8h30c4.4,0,8-3.6,8-8V35C73,30.6,69.4,27,65,27 L65,27z"/></g><g><path fill="#fffef4" d="M62.391,69H37.609C33.974,69,31,66.026,31,62.391V37.609C31,33.974,33.974,31,37.609,31h24.783 C66.026,31,69,33.974,69,37.609v24.783C69,66.026,66.026,69,62.391,69z"/></g><g><path fill="#472b29" d="M68.5,47.375c-0.276,0-0.5-0.224-0.5-0.5V43c0-0.276,0.224-0.5,0.5-0.5S69,42.724,69,43v3.875 C69,47.151,68.776,47.375,68.5,47.375z"/></g><g><path fill="#472b29" d="M68.5,40.5c-0.276,0-0.5-0.224-0.5-0.5v-2c0-0.276,0.224-0.5,0.5-0.5S69,37.724,69,38v2 C69,40.276,68.776,40.5,68.5,40.5z"/></g><g><path fill="#472b29" d="M64,69H36c-2.757,0-5-2.243-5-5V36c0-2.757,2.243-5,5-5h25.375c0.276,0,0.5,0.224,0.5,0.5 s-0.224,0.5-0.5,0.5H36c-2.206,0-4,1.794-4,4v28c0,2.206,1.794,4,4,4h28c2.206,0,4-1.794,4-4V49.625c0-0.276,0.224-0.5,0.5-0.5 s0.5,0.224,0.5,0.5V64C69,66.757,66.757,69,64,69z"/></g><g><path fill="#c5def0" d="M50.926,57.585c0,0,9.808,0,9.868,0c2.265,0,4.101-1.836,4.101-4.101 c0-1.976-1.398-3.625-3.258-4.014c0.021-0.173,0.036-0.348,0.036-0.527c0-2.346-1.902-4.248-4.248-4.248 c-1.385,0-2.611,0.666-3.387,1.692c-0.198-2.611-2.531-4.626-5.26-4.292c-1.996,0.244-3.646,1.787-4.013,3.763 c-0.118,0.634-0.106,1.249,0.012,1.827c-0.535-0.576-1.297-0.939-2.145-0.939c-1.552,0-2.819,1.209-2.92,2.736 c-0.705-0.156-1.472-0.146-2.279,0.157c-1.544,0.579-2.643,2.033-2.707,3.68c-0.091,2.34,1.778,4.266,4.098,4.266 c0.176,0,0.795,0,0.938,0h8.516"/><path fill="#472b29" d="M60.794,57.959h-9.868c-0.207,0-0.375-0.168-0.375-0.375s0.168-0.375,0.375-0.375h9.868 c2.055,0,3.726-1.671,3.726-3.726c0-1.755-1.245-3.288-2.96-3.646c-0.19-0.04-0.319-0.22-0.295-0.413 c0.02-0.158,0.033-0.318,0.033-0.481c0-2.135-1.737-3.873-3.873-3.873c-1.221,0-2.347,0.562-3.088,1.543 c-0.093,0.124-0.253,0.179-0.404,0.134c-0.149-0.044-0.257-0.176-0.269-0.332c-0.089-1.167-0.66-2.264-1.568-3.008 c-0.918-0.752-2.086-1.086-3.271-0.94c-1.837,0.225-3.354,1.647-3.69,3.459c-0.105,0.566-0.102,1.133,0.01,1.684 c0.034,0.165-0.047,0.332-0.196,0.408c-0.147,0.077-0.331,0.046-0.446-0.079c-0.489-0.528-1.153-0.819-1.869-0.819 c-1.34,0-2.458,1.048-2.546,2.385c-0.007,0.109-0.062,0.21-0.149,0.275c-0.088,0.066-0.202,0.09-0.306,0.066 c-0.7-0.155-1.397-0.109-2.065,0.142c-1.417,0.532-2.407,1.875-2.465,3.344c-0.04,1.025,0.328,1.996,1.037,2.732 c0.71,0.737,1.664,1.144,2.687,1.144h9.454c0.207,0,0.375,0.168,0.375,0.375s-0.168,0.375-0.375,0.375h-9.456 c-1.229,0-2.375-0.488-3.227-1.374c-0.852-0.885-1.295-2.051-1.247-3.282c0.069-1.766,1.255-3.38,2.951-4.017 c0.677-0.254,1.376-0.337,2.089-0.243c0.297-1.529,1.648-2.674,3.241-2.674c0.593,0,1.172,0.163,1.676,0.46 c-0.005-0.346,0.024-0.694,0.088-1.042c0.396-2.131,2.18-3.804,4.337-4.067c1.397-0.174,2.762,0.221,3.839,1.104 c0.854,0.7,1.455,1.666,1.713,2.728c0.849-0.792,1.957-1.235,3.141-1.235c2.549,0,4.623,2.074,4.623,4.623 c0,0.081-0.003,0.162-0.008,0.242c1.891,0.548,3.229,2.305,3.229,4.299C65.27,55.952,63.262,57.959,60.794,57.959z"/><g><path fill="#472b29" d="M39.552,54.38c-0.006,0-0.011,0-0.017,0c-0.138-0.009-0.242-0.128-0.232-0.266 c0.091-1.353,1.349-2.374,2.817-2.281c0.104,0.007,0.208,0.02,0.312,0.038c0.249-0.811,1.1-1.364,2.016-1.309 c0.335,0.022,0.657,0.125,0.938,0.293c0.113-1.518,1.533-2.671,3.181-2.554c0.138,0.009,0.242,0.128,0.232,0.266 c-0.009,0.137-0.098,0.256-0.266,0.233c-1.377-0.09-2.565,0.855-2.65,2.107c-0.01,0.152-0.003,0.305,0.02,0.454 c0.017,0.11-0.04,0.217-0.141,0.265c-0.102,0.046-0.22,0.022-0.294-0.061c-0.26-0.294-0.644-0.478-1.053-0.504 c-0.035-0.002-0.071-0.003-0.107-0.003c-0.726,0-1.347,0.487-1.438,1.146c-0.011,0.071-0.05,0.135-0.11,0.174 c-0.06,0.04-0.132,0.053-0.203,0.033c-0.159-0.043-0.312-0.069-0.469-0.079c-1.178-0.078-2.213,0.737-2.286,1.815 C39.792,54.279,39.683,54.38,39.552,54.38z"/></g></g></svg>