<svg xmlns="http://www.w3.org/2000/svg"  viewBox="0 0 48 48" width="480px" height="480px"><path fill="#1e4384" d="M37.456,37.509c0,0,1.848-0.466,2.165-1.946c-0.088,2.977-0.37,7.333-0.37,7.333 s0.332,1.467-2.147,1.681c-2.479,0.214-13.792,0-13.792,0L11.125,44.57c0,0-3.62-0.43-3.612-3.322 c0.008-2.892,0.623-3.982,2.649-3.935S37.456,37.509,37.456,37.509z"/><path fill="#febf10" d="M37.21,37.61c0,0,0.553,0.297,0.478,1.156s0.187,3.449-1.281,3.5s-13.719,0.17-13.719,0.17 l-11.822-0.062c0,0-1.322,0.146-1.319-1.333c0.003-1.479-0.631-3.7,2.641-3.682S37.21,37.61,37.21,37.61z"/><path fill="#4b7bb2" d="M26.917,37.506l9.708,0.176c0,0,2.895,0.005,3.01-3.015c0.115-3.021-0.09-12.353-0.09-12.353 l0.178-15.501c0,0,0.715-2.986-2.556-3.188C33.896,3.424,24.25,3.689,24.25,3.689l-9.218-0.112c0,0-5.39,0.18-6.711,2.13 s-0.86,5.481-0.86,5.481l0.025,8.594l0.27,6.153l-0.372,14.69c0,0-0.571-3.133,2.164-3.27 C12.281,37.219,26.917,37.506,26.917,37.506z"/><path fill="#1e4384" d="M11.335,37.321c-0.282-0.09-0.62-0.576-0.648-0.863c-0.35-3.579,0.12-7.175,0.14-10.771 c0.012-2.259-0.07-4.517-0.152-6.775c-0.035-0.951-0.069-1.902-0.104-2.853c-0.093-2.555-0.186-5.11-0.284-7.665 c-0.058-1.515-0.043-3.227,1.048-4.279c0,0-3.267,0.44-3.569,2.579c-0.302,2.139-0.433,7.348-0.433,7.348l0.422,11.893 l-0.187,8.023l-0.047,4.397C7.521,38.355,8.358,36.85,11.335,37.321z"/><path fill="#38b47b" d="M16.143,7.602c0.029,0.798,0.059,1.689,0.088,2.486c0.003,0.084,0.011,0.179,0.082,0.235 c0.055,0.043,0.133,0.051,0.206,0.056c0.472,0.036,0.943,0.072,1.415,0.108c0.786,0.06,1.598,0.117,2.347-0.105 c0.015-0.884-0.025-1.768-0.119-2.648c-0.017-0.156-0.045-0.33-0.181-0.429c-0.131-0.095-0.317-0.09-0.485-0.08 C18.376,7.297,17.259,7.485,16.143,7.602z"/><path fill="#010101" d="M19.016,11.042c-0.386,0-0.764-0.028-1.12-0.057l-1.415-0.106c-0.107-0.009-0.305-0.024-0.48-0.165 c-0.256-0.201-0.267-0.507-0.27-0.607L15.644,7.62c-0.009-0.263,0.186-0.487,0.447-0.515c0.409-0.044,0.818-0.097,1.228-0.149 c0.7-0.09,1.424-0.184,2.146-0.229c0.184-0.011,0.526-0.033,0.812,0.176c0.323,0.234,0.364,0.615,0.382,0.777 c0.096,0.9,0.137,1.812,0.122,2.711c-0.004,0.218-0.149,0.409-0.358,0.471C19.957,11,19.48,11.042,19.016,11.042z M16.725,9.894 l1.247,0.095c0.58,0.046,1.224,0.094,1.813-0.004c-0.001-0.73-0.041-1.468-0.119-2.195c-0.004-0.037-0.008-0.063-0.011-0.083 c-0.016,0.015-0.064,0.016-0.126,0.02c-0.689,0.043-1.397,0.135-2.081,0.223c-0.263,0.034-0.525,0.067-0.787,0.099L16.725,9.894z"/><path fill="#38b47b" d="M16.557,15.302c-0.002,0.827,0.074,1.77,0.072,2.597c0,0.114,0.007,0.246,0.093,0.315 c0.057,0.046,0.134,0.051,0.206,0.055c1.108,0.053,2.216,0.106,3.324,0.159c0.101,0.005,0.216,0.004,0.285-0.074 c0.054-0.062,0.062-0.152,0.067-0.236c0.049-0.822,0.099-1.643,0.148-2.465c0.013-0.213,0.017-0.452-0.12-0.608 c-0.11-0.125-0.281-0.161-0.441-0.186c-1.095-0.169-2.209-0.089-3.314-0.008C16.678,14.865,16.484,15.106,16.557,15.302z"/><path fill="#010101" d="M20.313,18.93c-0.034,0-0.063-0.001-0.084-0.003l-3.324-0.159c-0.104-0.005-0.313-0.017-0.497-0.165 c-0.28-0.229-0.279-0.575-0.278-0.706c0.001-0.406-0.017-0.841-0.036-1.275c-0.018-0.426-0.035-0.853-0.036-1.254 c-0.042-0.202,0-0.417,0.121-0.606c0.152-0.237,0.4-0.391,0.663-0.41c1.118-0.079,2.273-0.166,3.426,0.014 c0.161,0.024,0.498,0.076,0.739,0.349c0.283,0.324,0.258,0.744,0.245,0.969l-0.148,2.466c-0.006,0.109-0.02,0.34-0.188,0.533 C20.721,18.9,20.466,18.93,20.313,18.93z M17.129,17.776l2.984,0.145l0.139-2.299c0.008-0.128,0.006-0.214-0.004-0.253 c-0.008,0.008-0.047-0.003-0.133-0.017c-0.996-0.152-2.041-0.089-3.058-0.015c0,0.396,0.018,0.819,0.036,1.241 C17.11,16.985,17.127,17.392,17.129,17.776z"/><path fill="#38b47b" d="M16.51,22.557c0.053,1.092,0.116,2.032,0.024,3.122c0.933,0.039,1.663,0.023,2.455,0.086 c0.643,0.052,0.812-0.055,1.388-0.162c0.163-1.004,0.211-2.026,0.143-3.041C19.046,22.455,17.982,22.428,16.51,22.557z"/><path fill="#010101" d="M19.296,26.278c-0.103,0-0.218-0.005-0.348-0.016c-0.469-0.037-0.915-0.046-1.396-0.056 c-0.325-0.006-0.666-0.013-1.04-0.028c-0.136-0.006-0.264-0.067-0.354-0.17c-0.09-0.102-0.135-0.236-0.123-0.372 c0.081-0.953,0.039-1.785-0.01-2.749l-0.015-0.307c-0.013-0.269,0.188-0.499,0.456-0.522c1.541-0.134,2.626-0.103,4.089,0.005 c0.249,0.019,0.446,0.217,0.463,0.466c0.071,1.051,0.021,2.112-0.148,3.154c-0.034,0.209-0.195,0.373-0.403,0.411 c-0.141,0.026-0.256,0.053-0.36,0.076C19.849,26.229,19.631,26.278,19.296,26.278z M17.065,25.196 c0.174,0.005,0.342,0.008,0.506,0.011c0.502,0.011,0.967,0.021,1.457,0.06c0.402,0.031,0.564-0.005,0.858-0.071 c0.015-0.003,0.031-0.007,0.046-0.011c0.097-0.714,0.133-1.436,0.109-2.154c-1.049-0.066-1.924-0.085-3.009-0.013 C17.069,23.744,17.099,24.445,17.065,25.196z"/><path fill="#38b47b" d="M16.558,29.746C16.439,31,16.561,32.184,16.7,33.435c0.538-0.024,1.078,0.008,1.611,0.095 c0.398,0.065,0.798,0.161,1.197,0.112c0.399-0.049,0.809-0.275,0.989-0.692c0.13-0.301,0.122-0.655,0.112-0.991 c-0.025-0.797-0.05-1.593-0.074-2.39c-1.137-0.022-2.274-0.043-3.411-0.065C16.861,29.5,16.644,29.459,16.558,29.746z"/><path fill="#010101" d="M19.281,34.156c-0.302,0-0.591-0.052-0.854-0.099l-0.198-0.034c-0.5-0.081-1.006-0.11-1.507-0.089 c-0.254,0.018-0.491-0.182-0.52-0.443c-0.127-1.144-0.271-2.44-0.143-3.792c0.003-0.033,0.009-0.066,0.019-0.098 c0.189-0.625,0.744-0.604,0.98-0.599l3.484,0.066c0.267,0.005,0.482,0.218,0.49,0.484l0.075,2.39 c0.011,0.353,0.025,0.793-0.152,1.205c-0.234,0.543-0.752,0.913-1.388,0.99C19.472,34.15,19.376,34.156,19.281,34.156z M17.147,32.929c0.415,0.005,0.832,0.041,1.244,0.108l0.211,0.036c0.302,0.054,0.589,0.104,0.845,0.073 c0.215-0.026,0.482-0.144,0.59-0.394c0.089-0.207,0.079-0.511,0.071-0.778l-0.06-1.914l-2.936-0.056 c-0.029-0.001-0.054-0.002-0.076-0.003C16.965,31.012,17.049,32.012,17.147,32.929z"/><path fill="#ef4823" d="M21.516,39.609c-2.439,0.193-5.61,0.124-8.047-0.094c0.017,2.21-0.117,4.773-0.1,6.983 c1.464-0.644,2.514-0.939,4.101-2.021c1.772,0.96,2.384,1.315,4.057,1.94c0.101-1.979-0.106-2.568,0.009-4.521 C21.556,41.56,21.618,39.93,21.516,39.609z"/><path fill="#010101" d="M40.154,31.774l-0.002-0.357c0-0.017-0.008-0.032-0.01-0.048c-0.005-2.156-0.027-4.304-0.059-6.421 l-0.09-6.185c-0.03-2.078,0.042-4.197,0.111-6.246c0.07-2.062,0.143-4.192,0.112-6.296c-0.01-0.646-0.024-1.623-0.662-2.292 c-0.54-0.569-1.309-0.71-2.06-0.776l-0.288-0.025c-1.482-0.134-3.013-0.272-4.495-0.168c-4.94,0.348-11.892,0.222-16.968,0.13 L15.35,3.082c-0.879-0.015-1.793-0.032-2.693,0.18c-0.182,0.043-0.376,0.085-0.578,0.128C10.132,3.809,7.19,4.442,6.983,8.097 c-0.037,0.652-0.021,2.498-0.002,4.636c0.018,2.061,0.038,4.397,0.008,5.852c-0.032,1.612,0.055,3.16,0.139,4.657 c0.105,1.877,0.215,3.818,0.091,5.917c-0.075,1.264-0.283,8.722-0.168,9.991c0,0,0,0,0,0.001c-0.238,1.233-0.098,2.51,0.448,3.645 c0.459,0.957,1.381,1.705,2.594,2.104c0.416,0.138,0.868,0.179,1.33,0.179c0.338,0,0.682-0.022,1.021-0.044 c0.147-0.009,0.291-0.017,0.434-0.024c-0.007,0.507-0.013,1.01-0.01,1.492c0.001,0.168,0.087,0.324,0.228,0.416 c0.083,0.053,0.177,0.08,0.272,0.08c0.068,0,0.137-0.014,0.201-0.042c0.346-0.152,0.668-0.284,0.98-0.412 c0.934-0.384,1.819-0.747,2.947-1.483l0.108,0.059c1.486,0.807,2.165,1.175,3.748,1.767c0.148,0.053,0.316,0.037,0.449-0.051 s0.217-0.233,0.225-0.393c0.028-0.542,0.032-0.979,0.027-1.37c1.098,0.021,2.146,0.046,3.145,0.071 c1.864,0.047,3.605,0.091,5.394,0.091c1.956,0,3.967-0.053,6.251-0.211c0.662-0.047,1.894-0.133,2.525-1.04 c0.358-0.514,0.406-1.14,0.441-1.598c0.24-3.13,0.32-6.289,0.334-9.434C40.159,32.51,40.158,32.107,40.154,31.774z M12.29,4.367 c0.209-0.045,0.409-0.088,0.597-0.133c0.777-0.183,1.587-0.171,2.455-0.152l0.386,0.007C20.822,4.183,27.8,4.307,32.783,3.957 c1.402-0.098,2.892,0.036,4.335,0.166l0.289,0.025c0.555,0.049,1.111,0.14,1.423,0.469c0.34,0.357,0.377,0.97,0.387,1.618 c0.03,2.079-0.042,4.198-0.111,6.247c-0.07,2.062-0.143,4.192-0.112,6.294l0.09,6.186c0.039,2.632,0.073,5.307,0.061,7.99 c-0.034,1.002-0.167,2.191-0.645,3.348c-0.35,0.846-1.803,0.823-2.965,0.81l-0.132-0.002c-3.882-0.05-8.379-0.101-12.865-0.15 c-3.835-0.043-7.638-0.086-11.063-0.128c-0.106-0.073-0.272-0.309-0.288-0.419c-0.222-2.272-0.105-4.609,0.007-6.87 c0.063-1.26,0.128-2.563,0.135-3.85c0.013-2.258-0.07-4.547-0.152-6.796l-0.104-2.853c-0.093-2.556-0.186-5.11-0.284-7.666 c-0.056-1.465-0.032-2.966,0.868-3.866C11.867,4.459,12.08,4.412,12.29,4.367z M37.008,40.951 c-0.027,0.235-0.076,0.519-0.207,0.616c-0.079,0.058-0.237,0.084-0.378,0.104c-1.637,0.229-3.856,0.237-6.002,0.244 c-1.322,0.004-2.571,0.009-3.615,0.065c-0.832,0.043-1.666,0.016-2.472-0.011c-0.745-0.025-1.517-0.036-2.301-0.006 c0.001-0.014,0.001-0.025,0.002-0.04c0.001-0.02,0.11-1.989-0.043-2.469c-0.071-0.222-0.281-0.365-0.516-0.345 c-2.235,0.173-5.361,0.139-7.962-0.095c-0.142-0.006-0.28,0.035-0.384,0.13c-0.104,0.096-0.162,0.23-0.161,0.372 c0.006,0.783-0.009,1.614-0.027,2.454c-0.241-0.002-0.593-0.006-1.143-0.015c-0.557-0.008-1.483-0.151-1.62-0.23 c-0.036-0.059-0.032-0.231-0.03-0.295c0.009-0.342-0.02-0.716-0.051-1.097c-0.104-1.294-0.112-2.104,0.671-2.462 c0.029-0.013,0.048-0.036,0.073-0.053c3.579,0.045,7.617,0.09,11.682,0.136c4.485,0.05,8.982,0.101,12.864,0.15l0.131,0.002 c0.47,0.006,1,0.008,1.519-0.042C37.145,38.995,37.139,39.838,37.008,40.951z M7.981,8.153c0.105-1.848,1.043-2.706,2.212-3.196 c-0.436,1.055-0.45,2.305-0.405,3.457c0.098,2.554,0.191,5.108,0.284,7.664l0.105,2.887c0.08,2.203,0.163,4.482,0.15,6.719 c-0.007,1.266-0.071,2.557-0.133,3.806c-0.115,2.297-0.233,4.672-0.004,7.017c0.009,0.094,0.045,0.201,0.086,0.308 c-0.035,0-0.073-0.001-0.107-0.001c-0.517-0.004-1.152-0.016-1.729,0.252c-0.149,0.069-0.29,0.168-0.422,0.281 c0.011-2.628,0.144-7.19,0.2-8.128c0.127-2.156,0.016-4.126-0.091-6.031c-0.083-1.479-0.169-3.008-0.138-4.582 c0.029-1.468,0.009-3.812-0.008-5.88C7.963,10.691,7.947,8.772,7.981,8.153z M12.38,44.036c-0.706,0.045-1.437,0.091-1.974-0.086 c-0.939-0.31-1.67-0.889-2.006-1.589c-0.506-1.053-0.615-2.255-0.306-3.386c0.108-0.396,0.465-0.865,0.765-1.003 c0.161-0.075,0.343-0.113,0.533-0.135c-0.425,0.755-0.358,1.734-0.29,2.578c0.028,0.344,0.056,0.681,0.048,0.99 c-0.007,0.276,0.01,0.568,0.175,0.841c0.403,0.662,2.25,0.708,2.458,0.711c0.48,0.008,0.845,0.013,1.136,0.012 c0,0.008,0,0.016-0.001,0.025c-0.008,0.34-0.015,0.675-0.022,1.012C12.727,44.015,12.556,44.025,12.38,44.036z M18.081,44.24 l-0.373-0.202c-0.166-0.091-0.365-0.08-0.52,0.026c-1.166,0.793-2.024,1.146-3.019,1.554c-0.099,0.041-0.2,0.082-0.302,0.125 c0.005-0.881,0.028-1.803,0.05-2.724c0.024-1.005,0.049-2.009,0.052-2.961c2.347,0.182,5.023,0.214,7.099,0.083 c0.014,0.491-0.006,1.287-0.032,1.725c-0.06,1.018-0.034,1.686-0.009,2.332c0.018,0.449,0.036,0.91,0.024,1.5 C19.972,45.267,19.337,44.922,18.081,44.24z M38.548,43.411c-0.331,0.476-1.09,0.566-1.775,0.614 c-4.326,0.3-7.674,0.216-11.55,0.118c-1.017-0.026-2.081-0.052-3.199-0.072c-0.014-0.351-0.024-0.705-0.022-1.107 c0.764-0.032,1.515-0.021,2.298,0.005c0.508,0.018,1.028,0.035,1.556,0.035c0.332,0,0.667-0.007,1.005-0.025 c1.019-0.055,2.255-0.06,3.564-0.063c2.179-0.007,4.433-0.015,6.138-0.254c0.264-0.037,0.569-0.095,0.835-0.293 c0.435-0.323,0.549-0.839,0.603-1.301c0.145-1.23,0.148-2.155,0.022-3.198c0.406-0.13,0.769-0.33,1.046-0.639 c-0.052,1.698-0.127,3.394-0.256,5.078C38.779,42.754,38.735,43.144,38.548,43.411z"/></svg>