<svg xmlns="http://www.w3.org/2000/svg"  viewBox="0 0 100 100" width="500px" height="500px" baseProfile="basic"><path d="M19.5,95c-3.5839996,0-6.5-2.9160004-6.5-6.5V50.8219986c-0.4919996,0.1160011-1,0.1769981-1.507,0.1769981 c-1.2010002,0-2.375-0.3300018-3.3950005-0.9550018C6.1300001,48.7910004,5,46.7360001,5,44.5v-8 c0-2.3610001,1.2799997-4.5359993,3.3400002-5.6749992l40.447998-23.0110016C49.7750015,7.256,50.882,6.9660001,52,6.9660001 s2.2249985,0.29,3.1990013,0.8410001l40.5139961,23.0480003C97.7200012,31.9640007,99,34.1389999,99,36.5v8 c0,2.2369995-1.1309967,4.2929993-3.0250015,5.4980011c-1.0940018,0.6710014-2.2679977,1.0009995-3.4680023,1.0009995 c-0.5070038,0-1.0139999-0.0610008-1.5069962-0.1780014V88.5c0,3.5839996-2.9160004,6.5-6.5,6.5H19.5z" opacity=".3"/><path fill="#F2F2F2" d="M17.5,93c-3.5839996,0-6.5-2.9160004-6.5-6.5V48.8219986 c-0.4919996,0.1160011-1,0.1769981-1.507,0.1769981c-1.2010002,0-2.375-0.3300018-3.395-0.9550018 C4.1300001,46.7910004,3,44.7360001,3,42.5v-8c0-2.3610001,1.2799997-4.5359993,3.3400002-5.6749992l40.447998-23.0110016 C47.7750015,5.256,48.882,4.9660001,50,4.9660001s2.2249985,0.29,3.1990013,0.8410001l40.5139961,23.0480003 C95.7200012,29.9640007,97,32.1389999,97,34.5v8c0,2.2369995-1.1309967,4.2929993-3.0250015,5.4980011 c-1.0940018,0.6710014-2.2679977,1.0009995-3.4680023,1.0009995c-0.5070038,0-1.0139999-0.0610008-1.5069962-0.1780014V86.5 c0,3.5839996-2.9160004,6.5-6.5,6.5H17.5z"/><polygon fill="#D9EEFF" points="90.5,34.5 50,11.4619999 9.5,34.5 9.5,42.5 17.5,38.5 17.5,86.5 82.5,86.5 82.5,38.5 90.5,42.5"/><polygon fill="#70BFFF" points="9.5,34.5 10,40.980999 17.0060005,37.0870018 50,18.9810009 82.9850006,37.0779991 90,40.980999 90.5,34.5 50,11.4619999"/><path fill="#707CC0" d="M70,70H30c-1.1045704,0-2-0.8954315-2-2v-9c0-1.1045685,0.8954296-2,2-2h40c1.1045685,0,2,0.8954315,2,2v9 C72,69.1045685,71.1045685,70,70,70z"/><path fill="#40396E" d="M82.5,88h-65c-0.8290005,0-1.5-0.6719971-1.5-1.5V40.9269981l-5.8290005,2.9150009 c-0.4659996,0.2299995-1.0190001,0.2060013-1.4589996-0.0649986C8.2690001,43.5029984,8,43.0200005,8,42.5v-8 c0-0.5390015,0.29-1.0369987,0.7580004-1.3040009l40.5-23.0380001c0.4599991-0.2620001,1.0229988-0.2620001,1.4830017,0 l40.4999962,23.0380001C91.7109985,33.4630013,92,33.9609985,92,34.5v8c0,0.5200005-0.2699966,1.0029984-0.7109985,1.276001 c-0.4420013,0.2719994-0.9950027,0.2970009-1.4599991,0.0649986L84,40.9269981V86.5C84,87.3280029,83.3280029,88,82.5,88z M19,85 h62V38.5c0-0.5200005,0.2699966-1.0029984,0.7109985-1.276001c0.4430008-0.2729988,0.9940033-0.2970009,1.4599991-0.0649986 L89,40.0730019v-4.7010002L50,13.1879997L11,35.3720016v4.7010002l5.8290005-2.9150009 c0.4640007-0.2319984,1.0170002-0.2080002,1.4589996,0.0649986S19,37.9799995,19,38.5V85z"/><circle cx="65.5" cy="63.5" r="2.5" fill="#96C362"/><path fill="#707CC0" d="M70,53H30c-1.1045704,0-2-0.8954315-2-2v-9c0-1.1045685,0.8954296-2,2-2h40c1.1045685,0,2,0.8954315,2,2v9 C72,52.1045685,71.1045685,53,70,53z"/><circle cx="65.5" cy="46.5" r="2.5" fill="#96C362"/><rect width="38.681" height="4" x="30.66" y="53" fill="#40396E"/><line x1="50" x2="50" y1="70" y2="78" fill="none" stroke="#40396E" stroke-miterlimit="10" stroke-width="3"/><line x1="39.723" x2="60.277" y1="77" y2="77" fill="none" stroke="#40396E" stroke-linecap="round" stroke-linejoin="round" stroke-miterlimit="10" stroke-width="3"/></svg>