<svg xmlns="http://www.w3.org/2000/svg"  viewBox="0 0 48 48" width="480px" height="480px"><path fill="#37474f" d="M25.471,32.149h-2.009v-1.951l0.011-0.01c0.921-0.829,1.436-0.434,1.572-0.293	c0.014,0.015,0.026,0.028,0.035,0.038l0.131-0.125c-0.066-0.249-0.482-0.325-0.487-0.326l-0.026-0.005l-0.014-0.509h0.501	l0.286,0.501V32.149z M25.557,15.711l0.044-4.066c-0.545-0.487-1.105-0.718-1.667-0.687c-0.764,0.042-1.285,0.566-1.357,0.641	l0.043,6.571c0.114-0.232,0.362-0.431,0.74-0.592c0.38-0.162,0.892-0.287,1.523-0.373c1.072-0.145,2.131-0.125,2.142-0.125	c1.402,0,2.636,0.186,3.666,0.552c0.825,0.294,1.523,0.703,2.073,1.218c0.938,0.878,1.124,1.77,1.125,1.779l0.001,0.006v17.23	l0,0.003c-0.26,1.635-0.957,2.971-2.073,3.973c-0.892,0.801-2.051,1.39-3.446,1.752c-1.275,0.331-2.52,0.407-3.4,0.407	c-0.733,0-1.214-0.053-1.253-0.058c-2.014,0.044-3.753-0.183-5.172-0.674c-1.18-0.409-2.149-1.004-2.881-1.77	c-0.874-0.915-1.25-1.913-1.411-2.59c-0.171-0.716-0.143-1.234-0.142-1.263V10.539l0-0.002c0.169-1.655,0.795-3.027,1.862-4.079	c0.854-0.843,1.991-1.482,3.379-1.901c2.36-0.712,4.664-0.542,4.771-0.533c1.867-0.075,3.511,0.117,4.884,0.569	c1.155,0.38,2.133,0.949,2.907,1.691c1.016,0.974,1.499,2.079,1.725,2.834c0.245,0.819,0.25,1.417,0.25,1.423v5.17H25.557z M21.139,25.192v0.216H20.65v0.457h-0.236v0.439h0.239l0.009,0.205v12.476h-0.252v0.604h0.661v0.244h1.918v-0.272h0.264v-6.45	l0.007-0.009c0.007-0.01,0.188-0.243,0.577-0.454c0.352-0.191,0.947-0.395,1.793-0.297v-3.365l0.018-0.009	c0.004-0.002,0.372-0.189,1.062-0.373c0.631-0.168,1.668-0.369,3.036-0.372v-3.05c-0.041-0.053-0.289-0.353-0.766-0.491	c-0.483-0.139-1.306-0.136-2.485,0.671l-0.003,0.002c-0.004,0.002-0.408,0.222-0.926,0.392c-0.698,0.23-1.26,0.266-1.67,0.108	c-0.304-0.118-0.518-0.344-0.637-0.672H21.139z"/></svg>