<?xml version="1.0" encoding="UTF-8"?>
<svg xmlns="http://www.w3.org/2000/svg" xmlns:xlink="http://www.w3.org/1999/xlink" viewBox="0 0 480 480" width="480px" height="480px">
<g id="surface367325236">
<rect x="0" y="0" width="480" height="480" style="fill:rgb(86.666667%,86.666667%,86.666667%);fill-opacity:1;stroke:none;"/>
<path style=" stroke:none;fill-rule:nonzero;fill:rgb(0%,0%,0%);fill-opacity:1;" d="M 408 42 C 417.871094 42 426 50.128906 426 60 L 426 284.5 C 422.109375 282.855469 418.105469 281.425781 414 280.238281 L 414 60 C 414 56.609375 411.390625 54 408 54 L 168 54 C 164.609375 54 162 56.609375 162 60 L 162 78 L 312 78 C 317.257812 78 321.972656 80.351562 325.277344 84 L 384 84 L 384 240 L 330 240 L 330 290.496094 C 325.816406 292.921875 321.808594 295.621094 318 298.566406 L 318 96 C 318 92.609375 315.390625 90 312 90 L 72 90 C 68.609375 90 66 92.609375 66 96 L 66 432 C 66 435.390625 68.609375 438 72 438 L 290.496094 438 C 292.921875 442.183594 295.621094 446.191406 298.566406 450 L 72 450 C 62.128906 450 54 441.871094 54 432 L 54 96 C 54 86.128906 62.128906 78 72 78 L 150 78 L 150 60 C 150 50.128906 158.128906 42 168 42 Z M 330 132 L 372 132 L 372 96 L 330 96 Z M 354 114 C 354 117.3125 351.3125 120 348 120 C 344.6875 120 342 117.3125 342 114 C 342 110.6875 344.6875 108 348 108 C 351.3125 108 354 110.6875 354 114 Z M 288 120 L 288 276 L 96 276 L 96 120 Z M 108 168 L 276 168 L 276 132 L 108 132 Z M 258 150 C 258 153.3125 255.3125 156 252 156 C 248.6875 156 246 153.3125 246 150 C 246 146.6875 248.6875 144 252 144 C 255.3125 144 258 146.6875 258 150 Z M 330 180 L 372 180 L 372 144 L 330 144 Z M 354 162 C 354 165.3125 351.3125 168 348 168 C 344.6875 168 342 165.3125 342 162 C 342 158.6875 344.6875 156 348 156 C 351.3125 156 354 158.6875 354 162 Z M 108 216 L 276 216 L 276 180 L 108 180 Z M 258 198 C 258 201.3125 255.3125 204 252 204 C 248.6875 204 246 201.3125 246 198 C 246 194.6875 248.6875 192 252 192 C 255.3125 192 258 194.6875 258 198 Z M 330 228 L 372 228 L 372 192 L 330 192 Z M 354 210 C 354 213.3125 351.3125 216 348 216 C 344.6875 216 342 213.3125 342 210 C 342 206.6875 344.6875 204 348 204 C 351.3125 204 354 206.6875 354 210 Z M 108 264 L 276 264 L 276 228 L 108 228 Z M 258 246 C 258 249.3125 255.3125 252 252 252 C 248.6875 252 246 249.3125 246 246 C 246 242.6875 248.6875 240 252 240 C 255.3125 240 258 242.6875 258 246 Z M 108 312 C 108 315.3125 105.3125 318 102 318 C 98.6875 318 96 315.3125 96 312 C 96 308.6875 98.6875 306 102 306 C 105.3125 306 108 308.6875 108 312 Z M 108 336 C 108 339.3125 105.3125 342 102 342 C 98.6875 342 96 339.3125 96 336 C 96 332.6875 98.6875 330 102 330 C 105.3125 330 108 332.6875 108 336 Z M 216 360 C 216 373.183594 205.183594 384 192 384 C 178.816406 384 168 373.183594 168 360 C 168 346.816406 178.816406 336 192 336 C 205.183594 336 216 346.816406 216 360 Z M 180 360 C 180 366.699219 185.300781 372 192 372 C 198.699219 372 204 366.699219 204 360 C 204 353.300781 198.699219 348 192 348 C 185.300781 348 180 353.300781 180 360 Z M 108 360 C 108 363.3125 105.3125 366 102 366 C 98.6875 366 96 363.3125 96 360 C 96 356.6875 98.6875 354 102 354 C 105.3125 354 108 356.6875 108 360 Z M 108 384 C 108 387.3125 105.3125 390 102 390 C 98.6875 390 96 387.3125 96 384 C 96 380.6875 98.6875 378 102 378 C 105.3125 378 108 380.6875 108 384 Z M 108 408 C 108 411.3125 105.3125 414 102 414 C 98.6875 414 96 411.3125 96 408 C 96 404.6875 98.6875 402 102 402 C 105.3125 402 108 404.6875 108 408 Z M 108 408 "/>
<path style=" stroke:none;fill-rule:nonzero;fill:rgb(80.000001%,80.000001%,80.000001%);fill-opacity:1;" d="M 390 378 L 426 378 L 426 390 L 390 390 L 390 426 L 378 426 L 378 390 L 342 390 L 342 378 L 378 378 L 378 342 L 390 342 Z M 480 384 C 480 436.933594 436.933594 480 384 480 C 331.066406 480 288 436.933594 288 384 C 288 331.066406 331.066406 288 384 288 C 436.933594 288 480 331.066406 480 384 Z M 468 384 C 468 337.679688 430.320312 300 384 300 C 337.679688 300 300 337.679688 300 384 C 300 430.320312 337.679688 468 384 468 C 430.320312 468 468 430.320312 468 384 Z M 468 384 "/>
</g>
</svg>
